<svg xmlns="http://www.w3.org/2000/svg" xmlns:xlink="http://www.w3.org/1999/xlink" width="500" zoomAndPan="magnify" viewBox="0 0 375 374.999991" height="500" preserveAspectRatio="xMidYMid meet" version="1.0"><defs><g/><clipPath id="12799fff89"><path d="M 119.308594 140 L 188 140 L 188 200.019531 L 119.308594 200.019531 Z M 119.308594 140 " clip-rule="nonzero"/></clipPath><clipPath id="7b95343691"><path d="M 187 108.519531 L 255.808594 108.519531 L 255.808594 169 L 187 169 Z M 187 108.519531 " clip-rule="nonzero"/></clipPath></defs><g clip-path="url(#12799fff89)"><path fill="#0652e9" d="M 165.230469 182.664062 L 165.230469 190.964844 L 127.636719 173.5 L 127.636719 166.765625 L 165.230469 149.296875 L 165.230469 157.601562 L 136.800781 170.054688 L 136.800781 170.210938 Z M 187.558594 140.074219 L 124.6875 140.074219 C 121.71875 140.074219 119.3125 142.480469 119.3125 145.449219 L 119.3125 194.816406 C 119.3125 197.785156 121.71875 200.191406 124.6875 200.191406 L 170.105469 200.191406 L 187.558594 140.074219 " fill-opacity="1" fill-rule="nonzero"/></g><g clip-path="url(#7b95343691)"><path fill="#62e1e9" d="M 247.378906 142.210938 L 209.785156 159.441406 L 209.785156 151.136719 L 238.839844 138.683594 L 238.839844 138.527344 L 209.785156 126.074219 L 209.785156 117.773438 L 247.378906 135.003906 Z M 205.011719 108.546875 L 187.558594 168.664062 L 250.328125 168.664062 C 253.292969 168.664062 255.699219 166.257812 255.699219 163.289062 L 255.699219 113.921875 C 255.699219 110.953125 253.292969 108.546875 250.328125 108.546875 L 205.011719 108.546875 " fill-opacity="1" fill-rule="nonzero"/></g><g fill="#ffffff" fill-opacity="1"><g transform="translate(77.026908, 255.534857)"><g><path d="M 12.074219 0.28125 C 16.238281 0.28125 19.84375 -2.066406 21.628906 -5.496094 L 17.636719 -7.558594 C 16.625 -5.566406 14.558594 -4.234375 12.074219 -4.234375 C 8.539062 -4.234375 5.84375 -6.964844 5.84375 -10.5 C 5.84375 -14.035156 8.539062 -16.761719 12.074219 -16.761719 C 14.558594 -16.761719 16.625 -15.433594 17.636719 -13.4375 L 21.628906 -15.503906 C 19.84375 -18.933594 16.238281 -21.277344 12.074219 -21.277344 C 6.125 -21.277344 1.292969 -16.449219 1.292969 -10.5 C 1.292969 -4.550781 6.125 0.28125 12.074219 0.28125 Z M 12.074219 0.28125 "/></g></g></g><g fill="#ffffff" fill-opacity="1"><g transform="translate(100.795791, 255.534857)"><g><path d="M 12.074219 0.28125 C 18.058594 0.28125 22.851562 -4.550781 22.851562 -10.5 C 22.851562 -16.449219 18.058594 -21.277344 12.074219 -21.277344 C 6.125 -21.277344 1.292969 -16.449219 1.292969 -10.5 C 1.292969 -4.550781 6.125 0.28125 12.074219 0.28125 Z M 12.074219 -4.234375 C 8.539062 -4.234375 5.84375 -6.964844 5.84375 -10.5 C 5.84375 -14.035156 8.539062 -16.761719 12.074219 -16.761719 C 15.644531 -16.761719 18.339844 -14.035156 18.339844 -10.5 C 18.339844 -6.964844 15.644531 -4.234375 12.074219 -4.234375 Z M 12.074219 -4.234375 "/></g></g></g><g fill="#ffffff" fill-opacity="1"><g transform="translate(126.209438, 255.534857)"><g><path d="M 2.066406 0 L 8.996094 0 C 14.769531 0 19.492188 -4.691406 19.492188 -10.5 C 19.492188 -16.308594 14.769531 -21 8.996094 -21 L 2.066406 -21 Z M 6.683594 -4.09375 L 6.683594 -16.902344 L 8.960938 -16.902344 C 12.285156 -16.902344 14.875 -14.140625 14.875 -10.5 C 14.875 -6.859375 12.285156 -4.09375 8.960938 -4.09375 Z M 6.683594 -4.09375 "/></g></g></g><g fill="#ffffff" fill-opacity="1"><g transform="translate(148.228568, 255.534857)"><g><path d="M 2.238281 0 L 6.859375 0 L 6.859375 -21 L 2.238281 -21 Z M 2.238281 0 "/></g></g></g><g fill="#ffffff" fill-opacity="1"><g transform="translate(158.524324, 255.534857)"><g><path d="M 17.148438 -21 L 17.148438 -7.105469 L 6.824219 -21 L 2.066406 -21 L 2.066406 0 L 6.683594 0 L 6.683594 -13.929688 L 16.972656 0 L 21.734375 0 L 21.734375 -21 Z M 17.148438 -21 "/></g></g></g><g fill="#ffffff" fill-opacity="1"><g transform="translate(183.588022, 255.534857)"><g><path d="M 12.074219 -11.515625 L 12.074219 -7.910156 L 17.847656 -7.910156 C 16.867188 -5.703125 14.699219 -4.234375 12.109375 -4.234375 C 8.574219 -4.234375 5.84375 -6.964844 5.84375 -10.5 C 5.84375 -14.035156 8.574219 -16.761719 12.109375 -16.761719 C 14.59375 -16.761719 16.625 -15.433594 17.671875 -13.4375 L 21.664062 -15.503906 C 19.84375 -18.933594 16.238281 -21.277344 12.109375 -21.277344 C 6.125 -21.277344 1.328125 -16.449219 1.328125 -10.5 C 1.328125 -4.550781 6.125 0.28125 12.109375 0.28125 C 18.058594 0.28125 22.886719 -4.550781 22.886719 -10.5 L 22.886719 -11.515625 Z M 12.074219 -11.515625 "/></g></g></g><g fill="#ffffff" fill-opacity="1"><g transform="translate(209.036671, 255.534857)"><g/></g></g><g fill="#ffffff" fill-opacity="1"><g transform="translate(218.667514, 255.534857)"><g><path d="M 15.011719 -21 L -0.175781 -21 L -0.175781 -16.902344 L 5.144531 -16.902344 L 5.144531 0 L 9.730469 0 L 9.730469 -16.902344 L 15.011719 -16.902344 Z M 15.011719 -21 "/></g></g></g><g fill="#ffffff" fill-opacity="1"><g transform="translate(234.737467, 255.534857)"><g><path d="M 14.875 -16.9375 L 14.875 -21 L 2.238281 -21 L 2.238281 0 L 14.875 0 L 14.875 -4.058594 L 6.859375 -4.058594 L 6.859375 -8.46875 L 13.71875 -8.46875 L 13.71875 -12.527344 L 6.859375 -12.527344 L 6.859375 -16.9375 Z M 14.875 -16.9375 "/></g></g></g><g fill="#ffffff" fill-opacity="1"><g transform="translate(252.277219, 255.534857)"><g><path d="M 12.074219 0.28125 C 16.238281 0.28125 19.84375 -2.066406 21.628906 -5.496094 L 17.636719 -7.558594 C 16.625 -5.566406 14.558594 -4.234375 12.074219 -4.234375 C 8.539062 -4.234375 5.84375 -6.964844 5.84375 -10.5 C 5.84375 -14.035156 8.539062 -16.761719 12.074219 -16.761719 C 14.558594 -16.761719 16.625 -15.433594 17.636719 -13.4375 L 21.628906 -15.503906 C 19.84375 -18.933594 16.238281 -21.277344 12.074219 -21.277344 C 6.125 -21.277344 1.292969 -16.449219 1.292969 -10.5 C 1.292969 -4.550781 6.125 0.28125 12.074219 0.28125 Z M 12.074219 0.28125 "/></g></g></g><g fill="#ffffff" fill-opacity="1"><g transform="translate(276.046104, 255.534857)"><g><path d="M 15.222656 -21 L 15.222656 -12.5625 L 6.683594 -12.5625 L 6.683594 -21 L 2.066406 -21 L 2.066406 0 L 6.683594 0 L 6.683594 -8.46875 L 15.222656 -8.46875 L 15.222656 0 L 19.808594 0 L 19.808594 -21 Z M 15.222656 -21 "/></g></g></g><g fill="#ffffff" fill-opacity="1"><g transform="translate(110.412163, 276.134807)"><g><path d="M 1.09375 0 L 3.554688 0 C 6.03125 0 8.054688 -2.011719 8.054688 -4.5 C 8.054688 -6.988281 6.03125 -9 3.554688 -9 L 1.09375 -9 Z M 2.039062 -0.960938 L 2.039062 -8.039062 L 3.539062 -8.039062 C 5.535156 -8.039062 7.09375 -6.523438 7.09375 -4.5 C 7.09375 -2.476562 5.535156 -0.960938 3.539062 -0.960938 Z M 2.039062 -0.960938 "/></g></g></g><g fill="#ffffff" fill-opacity="1"><g transform="translate(123.222227, 276.134807)"><g><path d="M 1.171875 0 L 2.128906 0 L 2.128906 -9 L 1.171875 -9 Z M 1.171875 0 "/></g></g></g><g fill="#ffffff" fill-opacity="1"><g transform="translate(130.527293, 276.134807)"><g><path d="M 5.386719 -4.769531 L 5.386719 -3.871094 L 9 -3.871094 C 8.714844 -2.128906 7.214844 -0.839844 5.398438 -0.839844 C 3.375 -0.839844 1.738281 -2.460938 1.738281 -4.5 C 1.738281 -6.539062 3.375 -8.160156 5.398438 -8.160156 C 6.765625 -8.160156 7.964844 -7.425781 8.578125 -6.316406 L 9.40625 -6.78125 C 8.625 -8.175781 7.125 -9.121094 5.398438 -9.121094 C 2.835938 -9.121094 0.78125 -7.050781 0.78125 -4.5 C 0.78125 -1.949219 2.835938 0.121094 5.398438 0.121094 C 7.949219 0.121094 10.019531 -1.949219 10.019531 -4.5 L 10.019531 -4.769531 Z M 5.386719 -4.769531 "/></g></g></g><g fill="#ffffff" fill-opacity="1"><g transform="translate(145.332359, 276.134807)"><g><path d="M 1.171875 0 L 2.128906 0 L 2.128906 -9 L 1.171875 -9 Z M 1.171875 0 "/></g></g></g><g fill="#ffffff" fill-opacity="1"><g transform="translate(152.637426, 276.134807)"><g><path d="M 6.074219 -9 L 0.136719 -9 L 0.136719 -8.039062 L 2.625 -8.039062 L 2.625 0 L 3.585938 0 L 3.585938 -8.039062 L 6.074219 -8.039062 Z M 6.074219 -9 "/></g></g></g><g fill="#ffffff" fill-opacity="1"><g transform="translate(162.867499, 276.134807)"><g><path d="M 6.523438 0 L 7.574219 0 L 4.320312 -9 L 3.253906 -9 L 0 0 L 1.050781 0 L 1.785156 -2.101562 L 5.789062 -2.101562 Z M 2.101562 -3.015625 L 3.796875 -7.859375 L 5.476562 -3.015625 Z M 2.101562 -3.015625 "/></g></g></g><g fill="#ffffff" fill-opacity="1"><g transform="translate(174.462566, 276.134807)"><g><path d="M 2.054688 -0.960938 L 2.054688 -9 L 1.09375 -9 L 1.09375 0 L 5.398438 0 L 5.398438 -0.960938 Z M 2.054688 -0.960938 "/></g></g></g><g fill="#ffffff" fill-opacity="1"><g transform="translate(184.017632, 276.134807)"><g/></g></g><g fill="#ffffff" fill-opacity="1"><g transform="translate(191.652701, 276.134807)"><g><path d="M 3.359375 0.121094 C 4.890625 0.121094 6.136719 -0.796875 6.136719 -2.371094 C 6.136719 -5.429688 1.753906 -4.679688 1.753906 -6.824219 C 1.753906 -7.726562 2.488281 -8.160156 3.328125 -8.160156 C 4.019531 -8.160156 4.589844 -7.875 4.949219 -7.363281 L 5.699219 -7.996094 C 5.203125 -8.625 4.335938 -9.121094 3.300781 -9.121094 C 1.921875 -9.121094 0.796875 -8.21875 0.796875 -6.75 C 0.796875 -3.855469 5.175781 -4.574219 5.175781 -2.339844 C 5.175781 -1.378906 4.378906 -0.839844 3.375 -0.839844 C 2.355469 -0.839844 1.621094 -1.394531 1.304688 -2.21875 L 0.433594 -1.710938 C 0.898438 -0.601562 2.023438 0.121094 3.359375 0.121094 Z M 3.359375 0.121094 "/></g></g></g><g fill="#ffffff" fill-opacity="1"><g transform="translate(202.242771, 276.134807)"><g><path d="M 6.089844 -8.070312 L 6.089844 -9 L 1.171875 -9 L 1.171875 0 L 6.089844 0 L 6.089844 -0.929688 L 2.128906 -0.929688 L 2.128906 -4.035156 L 5.578125 -4.035156 L 5.578125 -4.964844 L 2.128906 -4.964844 L 2.128906 -8.070312 Z M 6.089844 -8.070312 "/></g></g></g><g fill="#ffffff" fill-opacity="1"><g transform="translate(213.252839, 276.134807)"><g><path d="M 4.738281 -4.109375 C 5.925781 -4.273438 6.824219 -5.265625 6.824219 -6.480469 C 6.824219 -7.890625 5.699219 -9 4.320312 -9 L 1.09375 -9 L 1.09375 0 L 2.054688 0 L 2.054688 -4.066406 L 3.75 -4.066406 L 6.300781 0 L 7.394531 0 Z M 2.054688 -4.980469 L 2.054688 -8.039062 L 4.261719 -8.039062 C 5.160156 -8.039062 5.863281 -7.410156 5.863281 -6.511719 C 5.863281 -5.59375 5.175781 -4.980469 4.261719 -4.980469 Z M 2.054688 -4.980469 "/></g></g></g><g fill="#ffffff" fill-opacity="1"><g transform="translate(224.802902, 276.134807)"><g><path d="M 6.523438 -9 L 3.796875 -1.230469 L 1.066406 -9 L 0 -9 L 3.253906 0 L 4.320312 0 L 7.574219 -9 Z M 6.523438 -9 "/></g></g></g><g fill="#ffffff" fill-opacity="1"><g transform="translate(236.397964, 276.134807)"><g><path d="M 1.171875 0 L 2.128906 0 L 2.128906 -9 L 1.171875 -9 Z M 1.171875 0 "/></g></g></g><g fill="#ffffff" fill-opacity="1"><g transform="translate(243.703025, 276.134807)"><g><path d="M 5.355469 0.121094 C 7.078125 0.121094 8.578125 -0.824219 9.375 -2.21875 L 8.550781 -2.683594 C 7.933594 -1.574219 6.734375 -0.839844 5.355469 -0.839844 C 3.328125 -0.839844 1.695312 -2.460938 1.695312 -4.5 C 1.695312 -6.539062 3.328125 -8.160156 5.355469 -8.160156 C 6.734375 -8.160156 7.933594 -7.425781 8.550781 -6.316406 L 9.375 -6.78125 C 8.578125 -8.175781 7.078125 -9.121094 5.355469 -9.121094 C 2.804688 -9.121094 0.734375 -7.050781 0.734375 -4.5 C 0.734375 -1.949219 2.804688 0.121094 5.355469 0.121094 Z M 5.355469 0.121094 "/></g></g></g><g fill="#ffffff" fill-opacity="1"><g transform="translate(257.593085, 276.134807)"><g><path d="M 6.089844 -8.070312 L 6.089844 -9 L 1.171875 -9 L 1.171875 0 L 6.089844 0 L 6.089844 -0.929688 L 2.128906 -0.929688 L 2.128906 -4.035156 L 5.578125 -4.035156 L 5.578125 -4.964844 L 2.128906 -4.964844 L 2.128906 -8.070312 Z M 6.089844 -8.070312 "/></g></g></g><g fill="#ffffff" fill-opacity="1"><g transform="translate(51.563103, 227.467749)"><g><path d="M 1.347656 0 L 2.453125 0 L 2.453125 -10.367188 L 1.347656 -10.367188 Z M 1.347656 0 "/></g></g></g><g fill="#ffffff" fill-opacity="1"><g transform="translate(59.977874, 227.467749)"><g><path d="M 8.707031 -10.367188 L 8.707031 -1.847656 L 2.296875 -10.367188 L 1.261719 -10.367188 L 1.261719 0 L 2.367188 0 L 2.367188 -8.519531 L 8.761719 0 L 9.796875 0 L 9.796875 -10.367188 Z M 8.707031 -10.367188 "/></g></g></g><g fill="#ffffff" fill-opacity="1"><g transform="translate(75.663558, 227.467749)"><g><path d="M 6.203125 -5.496094 L 6.203125 -4.457031 L 10.367188 -4.457031 C 10.039062 -2.453125 8.3125 -0.96875 6.21875 -0.96875 C 3.886719 -0.96875 2.003906 -2.832031 2.003906 -5.183594 C 2.003906 -7.535156 3.886719 -9.398438 6.21875 -9.398438 C 7.792969 -9.398438 9.175781 -8.550781 9.882812 -7.273438 L 10.832031 -7.808594 C 9.933594 -9.417969 8.207031 -10.503906 6.21875 -10.503906 C 3.265625 -10.503906 0.898438 -8.121094 0.898438 -5.183594 C 0.898438 -2.246094 3.265625 0.136719 6.21875 0.136719 C 9.15625 0.136719 11.542969 -2.246094 11.542969 -5.183594 L 11.542969 -5.496094 Z M 6.203125 -5.496094 "/></g></g></g><g fill="#ffffff" fill-opacity="1"><g transform="translate(92.713617, 227.467749)"><g><path d="M 1.640625 0.136719 C 2.160156 0.136719 2.589844 -0.292969 2.589844 -0.8125 C 2.589844 -1.332031 2.160156 -1.761719 1.640625 -1.761719 C 1.140625 -1.761719 0.691406 -1.332031 0.691406 -0.8125 C 0.691406 -0.292969 1.140625 0.136719 1.640625 0.136719 Z M 1.640625 0.136719 "/></g></g></g><g fill="#ffffff" fill-opacity="1"><g transform="translate(100.644818, 227.467749)"><g/></g></g><g fill="#ffffff" fill-opacity="1"><g transform="translate(109.439545, 227.467749)"><g><path d="M 6.167969 0.136719 C 8.15625 0.136719 9.882812 -0.949219 10.796875 -2.558594 L 9.847656 -3.09375 C 9.140625 -1.8125 7.757812 -0.96875 6.167969 -0.96875 C 3.835938 -0.96875 1.953125 -2.832031 1.953125 -5.183594 C 1.953125 -7.535156 3.835938 -9.398438 6.167969 -9.398438 C 7.757812 -9.398438 9.140625 -8.550781 9.847656 -7.273438 L 10.796875 -7.808594 C 9.882812 -9.417969 8.15625 -10.503906 6.167969 -10.503906 C 3.230469 -10.503906 0.847656 -8.121094 0.847656 -5.183594 C 0.847656 -2.246094 3.230469 0.136719 6.167969 0.136719 Z M 6.167969 0.136719 "/></g></g></g><g fill="#ffffff" fill-opacity="1"><g transform="translate(125.436095, 227.467749)"><g><path d="M 7.515625 0 L 8.726562 0 L 4.976562 -10.367188 L 3.75 -10.367188 L 0 0 L 1.210938 0 L 2.054688 -2.417969 L 6.667969 -2.417969 Z M 2.417969 -3.472656 L 4.371094 -9.054688 L 6.304688 -3.472656 Z M 2.417969 -3.472656 "/></g></g></g><g fill="#ffffff" fill-opacity="1"><g transform="translate(138.790251, 227.467749)"><g><path d="M 5.460938 -4.734375 C 6.824219 -4.925781 7.863281 -6.066406 7.863281 -7.464844 C 7.863281 -9.089844 6.566406 -10.367188 4.976562 -10.367188 L 1.261719 -10.367188 L 1.261719 0 L 2.367188 0 L 2.367188 -4.683594 L 4.320312 -4.683594 L 7.257812 0 L 8.519531 0 Z M 2.367188 -5.738281 L 2.367188 -9.261719 L 4.90625 -9.261719 C 5.945312 -9.261719 6.753906 -8.535156 6.753906 -7.5 C 6.753906 -6.445312 5.960938 -5.738281 4.90625 -5.738281 Z M 2.367188 -5.738281 "/></g></g></g><g fill="#ffffff" fill-opacity="1"><g transform="translate(152.092599, 227.467749)"><g><path d="M 2.367188 -1.105469 L 2.367188 -10.367188 L 1.261719 -10.367188 L 1.261719 0 L 6.21875 0 L 6.21875 -1.105469 Z M 2.367188 -1.105469 "/></g></g></g><g fill="#ffffff" fill-opacity="1"><g transform="translate(163.097958, 227.467749)"><g><path d="M 6.167969 0.136719 C 9.121094 0.136719 11.488281 -2.246094 11.488281 -5.183594 C 11.488281 -8.121094 9.121094 -10.503906 6.167969 -10.503906 C 3.230469 -10.503906 0.847656 -8.121094 0.847656 -5.183594 C 0.847656 -2.246094 3.230469 0.136719 6.167969 0.136719 Z M 6.167969 -0.96875 C 3.835938 -0.96875 1.953125 -2.832031 1.953125 -5.183594 C 1.953125 -7.535156 3.835938 -9.398438 6.167969 -9.398438 C 8.519531 -9.398438 10.382812 -7.535156 10.382812 -5.183594 C 10.382812 -2.832031 8.519531 -0.96875 6.167969 -0.96875 Z M 6.167969 -0.96875 "/></g></g></g><g fill="#ffffff" fill-opacity="1"><g transform="translate(180.078929, 227.467749)"><g><path d="M 3.871094 0.136719 C 5.632812 0.136719 7.066406 -0.914062 7.066406 -2.730469 C 7.066406 -6.253906 2.023438 -5.390625 2.023438 -7.863281 C 2.023438 -8.898438 2.867188 -9.398438 3.835938 -9.398438 C 4.628906 -9.398438 5.285156 -9.070312 5.703125 -8.484375 L 6.566406 -9.210938 C 5.996094 -9.933594 4.992188 -10.503906 3.800781 -10.503906 C 2.210938 -10.503906 0.914062 -9.46875 0.914062 -7.773438 C 0.914062 -4.441406 5.960938 -5.269531 5.960938 -2.695312 C 5.960938 -1.589844 5.046875 -0.96875 3.886719 -0.96875 C 2.710938 -0.96875 1.867188 -1.605469 1.503906 -2.558594 L 0.5 -1.96875 C 1.035156 -0.691406 2.332031 0.136719 3.871094 0.136719 Z M 3.871094 0.136719 "/></g></g></g><g fill="#ffffff" fill-opacity="1"><g transform="translate(192.275961, 227.467749)"><g/></g></g><g fill="#ffffff" fill-opacity="1"><g transform="translate(201.070688, 227.467749)"><g><path d="M 8.085938 -10.367188 L 8.085938 -5.738281 L 2.367188 -5.738281 L 2.367188 -10.367188 L 1.261719 -10.367188 L 1.261719 0 L 2.367188 0 L 2.367188 -4.628906 L 8.085938 -4.628906 L 8.085938 0 L 9.191406 0 L 9.191406 -10.367188 Z M 8.085938 -10.367188 "/></g></g></g><g fill="#ffffff" fill-opacity="1"><g transform="translate(216.151906, 227.467749)"><g><path d="M 7.015625 -9.296875 L 7.015625 -10.367188 L 1.347656 -10.367188 L 1.347656 0 L 7.015625 0 L 7.015625 -1.070312 L 2.453125 -1.070312 L 2.453125 -4.648438 L 6.425781 -4.648438 L 6.425781 -5.71875 L 2.453125 -5.71875 L 2.453125 -9.296875 Z M 7.015625 -9.296875 "/></g></g></g><g fill="#ffffff" fill-opacity="1"><g transform="translate(228.832508, 227.467749)"><g><path d="M 5.460938 -4.734375 C 6.824219 -4.925781 7.863281 -6.066406 7.863281 -7.464844 C 7.863281 -9.089844 6.566406 -10.367188 4.976562 -10.367188 L 1.261719 -10.367188 L 1.261719 0 L 2.367188 0 L 2.367188 -4.683594 L 4.320312 -4.683594 L 7.257812 0 L 8.519531 0 Z M 2.367188 -5.738281 L 2.367188 -9.261719 L 4.90625 -9.261719 C 5.945312 -9.261719 6.753906 -8.535156 6.753906 -7.5 C 6.753906 -6.445312 5.960938 -5.738281 4.90625 -5.738281 Z M 2.367188 -5.738281 "/></g></g></g><g fill="#ffffff" fill-opacity="1"><g transform="translate(242.134856, 227.467749)"><g><path d="M 8.707031 -10.367188 L 8.707031 -1.847656 L 2.296875 -10.367188 L 1.261719 -10.367188 L 1.261719 0 L 2.367188 0 L 2.367188 -8.519531 L 8.761719 0 L 9.796875 0 L 9.796875 -10.367188 Z M 8.707031 -10.367188 "/></g></g></g><g fill="#ffffff" fill-opacity="1"><g transform="translate(257.820551, 227.467749)"><g><path d="M 7.515625 0 L 8.726562 0 L 4.976562 -10.367188 L 3.75 -10.367188 L 0 0 L 1.210938 0 L 2.054688 -2.417969 L 6.667969 -2.417969 Z M 2.417969 -3.472656 L 4.371094 -9.054688 L 6.304688 -3.472656 Z M 2.417969 -3.472656 "/></g></g></g><g fill="#ffffff" fill-opacity="1"><g transform="translate(271.174706, 227.467749)"><g><path d="M 8.707031 -10.367188 L 8.707031 -1.847656 L 2.296875 -10.367188 L 1.261719 -10.367188 L 1.261719 0 L 2.367188 0 L 2.367188 -8.519531 L 8.761719 0 L 9.796875 0 L 9.796875 -10.367188 Z M 8.707031 -10.367188 "/></g></g></g><g fill="#ffffff" fill-opacity="1"><g transform="translate(286.86039, 227.467749)"><g><path d="M 1.261719 0 L 4.09375 0 C 6.945312 0 9.277344 -2.316406 9.277344 -5.183594 C 9.277344 -8.050781 6.945312 -10.367188 4.09375 -10.367188 L 1.261719 -10.367188 Z M 2.351562 -1.105469 L 2.351562 -9.261719 L 4.078125 -9.261719 C 6.375 -9.261719 8.171875 -7.515625 8.171875 -5.183594 C 8.171875 -2.851562 6.375 -1.105469 4.078125 -1.105469 Z M 2.351562 -1.105469 "/></g></g></g><g fill="#ffffff" fill-opacity="1"><g transform="translate(301.613471, 227.467749)"><g><path d="M 7.015625 -9.296875 L 7.015625 -10.367188 L 1.347656 -10.367188 L 1.347656 0 L 7.015625 0 L 7.015625 -1.070312 L 2.453125 -1.070312 L 2.453125 -4.648438 L 6.425781 -4.648438 L 6.425781 -5.71875 L 2.453125 -5.71875 L 2.453125 -9.296875 Z M 7.015625 -9.296875 "/></g></g></g><g fill="#ffffff" fill-opacity="1"><g transform="translate(314.294073, 227.467749)"><g><path d="M 2.609375 -1.105469 L 8.277344 -10.367188 L 1.054688 -10.367188 L 1.054688 -9.261719 L 6.324219 -9.261719 L 0.640625 0 L 8.484375 0 L 8.484375 -1.105469 Z M 2.609375 -1.105469 "/></g></g></g></svg>